<svg width="16" height="17" viewBox="0 0 16 17" fill="currentColor" xmlns="http://www.w3.org/2000/svg">
<path d="M2 12.3847V14.8847H4.5L11.8733 7.51141L9.37333 5.01141L2 12.3847ZM13.8067 5.57808C13.8685 5.5164 13.9175 5.44315 13.951 5.3625C13.9844 5.28185 14.0016 5.19539 14.0016 5.10808C14.0016 5.02077 13.9844 4.93431 13.951 4.85366C13.9175 4.77302 13.8685 4.69976 13.8067 4.63808L12.2467 3.07808C12.185 3.01628 12.1117 2.96725 12.0311 2.93379C11.9504 2.90034 11.864 2.88312 11.7767 2.88312C11.6894 2.88312 11.6029 2.90034 11.5223 2.93379C11.4416 2.96725 11.3683 3.01628 11.3067 3.07808L10.0867 4.29808L12.5867 6.79808L13.8067 5.57808V5.57808Z" />
</svg>
