<svg width="95" height="132" viewBox="0 0 95 132" fill="none" xmlns="http://www.w3.org/2000/svg">
<path d="M14.4783 64.3478C14.4783 45.7382 29.5643 30.6522 48.1739 30.6522C66.7835 30.6522 81.8696 45.7382 81.8696 64.3478V131.739H14.4783V64.3478Z" fill="white"/>
<path d="M94 131.739V47.5C94 21.8188 73.1812 1 47.5 1V1C21.8188 1 1 21.8187 1 47.5V131.739" stroke="white" stroke-width="1.34783"/>
<path d="M72.4348 131.739V71.087C72.4348 57.6881 61.5729 46.8261 48.174 46.8261V46.8261C34.775 46.8261 23.9131 57.6881 23.9131 71.087V131.739" stroke="#3604FF" stroke-width="1.34783"/>
<path d="M24 72C24 58.1929 35.1929 47 49 47H54V115.5L72 132H54H24V72Z" fill="#3604FF"/>
</svg>
