<svg width="155" height="106" viewBox="0 0 155 106" fill="none" xmlns="http://www.w3.org/2000/svg">
<path d="M154 52.9424C154 67.135 145.58 80.0961 131.737 89.5526C117.899 99.0057 98.7262 104.885 77.5 104.885C56.2738 104.885 37.1013 99.0057 23.2633 89.5526C9.42039 80.0961 1 67.135 1 52.9424C1 38.7498 9.42039 25.7887 23.2633 16.3322C37.1013 6.87907 56.2738 1 77.5 1C98.7262 1 117.899 6.87907 131.737 16.3322C145.58 25.7887 154 38.7498 154 52.9424Z" stroke="black" stroke-width="2"/>
<path d="M133.588 52.9424C133.588 81.5648 108.686 104.885 77.8189 104.885C46.9513 104.885 22.0493 81.5648 22.0493 52.9424C22.0493 24.32 46.9513 1 77.8189 1C108.686 1 133.588 24.32 133.588 52.9424Z" stroke="black" stroke-width="2"/>
<path d="M111.263 52.9424C111.263 67.3952 107.415 80.4338 101.245 89.8294C95.0705 99.2335 86.6541 104.885 77.4999 104.885C68.3458 104.885 59.9294 99.2335 53.7544 89.8294C47.585 80.4338 43.7366 67.3952 43.7366 52.9424C43.7366 38.4896 47.585 25.4509 53.7544 16.0553C59.9294 6.65131 68.3458 1 77.4999 1C86.6541 1 95.0705 6.65131 101.245 16.0553C107.415 25.4509 111.263 38.4896 111.263 52.9424Z" stroke="black" stroke-width="2"/>
<path d="M76.9566 30.6173C78.0542 41.7508 86.4961 50.7574 97.5354 52.5726L98.4195 52.718L97.5354 52.8634C86.4961 54.6786 78.0542 63.6852 76.9566 74.8187C75.0812 63.5321 66.2268 54.6926 54.9371 52.8362L54.218 52.718L54.9371 52.5998C66.2269 50.7433 75.0812 41.9039 76.9566 30.6173Z" fill="black"/>
<path d="M0 52.6235H77.0216M152.767 52.6235H77.0216M77.0216 52.6235V1.59467V53.4208V105.247" stroke="black" stroke-width="2"/>
</svg>
