<svg width="24" height="24" viewBox="0 0 24 24" fill="none" xmlns="http://www.w3.org/2000/svg">
<g clip-path="url(#clip0_65_4603)">
<path d="M5 14.5249C5 11.9399 8.10904 10.6275 9.9614 12.4304V12.4304C11.0961 13.5348 12.9039 13.5348 14.0386 12.4304V12.4304C15.891 10.6275 19 11.9399 19 14.5249V14.7341C19 17.2591 16.0791 18.6627 14.1076 17.0851L13.9441 16.9544C12.8076 16.0449 11.1924 16.0449 10.0559 16.9543L9.89242 17.0851C7.92091 18.6627 5 17.2591 5 14.7341V14.5249Z" fill="#C8F745"/>
<path d="M5 8.92351C5 6.33858 8.10904 5.02609 9.9614 6.82903V6.82903C11.0961 7.93345 12.9039 7.93345 14.0386 6.82903V6.82903C15.891 5.02609 19 6.33859 19 8.92351V9.13271C19 11.6577 16.0791 13.0614 14.1076 11.4838L13.9441 11.353C12.8076 10.4435 11.1924 10.4435 10.0559 11.353L9.89242 11.4838C7.92091 13.0614 5 11.6577 5 9.13271V8.92351Z" fill="#C8F745"/>
</g>
<rect x="0.55036" y="0.55036" width="22.8993" height="22.8993" rx="5.44964" stroke="white" stroke-width="1.10072"/>
<defs>
<clipPath id="clip0_65_4603">
<rect width="24" height="24" rx="6" fill="white"/>
</clipPath>
</defs>
</svg>
