<svg width="16" height="16" viewBox="0 0 16 16" fill="none" xmlns="http://www.w3.org/2000/svg">
<path fill-rule="evenodd" clip-rule="evenodd" d="M8.0001 14.4C9.69748 14.4 11.3253 13.7257 12.5256 12.5255C13.7258 11.3252 14.4001 9.69736 14.4001 7.99998C14.4001 6.30259 13.7258 4.67473 12.5256 3.47449C11.3253 2.27426 9.69748 1.59998 8.0001 1.59998C6.30271 1.59998 4.67485 2.27426 3.47461 3.47449C2.27438 4.67473 1.6001 6.30259 1.6001 7.99998C1.6001 9.69736 2.27438 11.3252 3.47461 12.5255C4.67485 13.7257 6.30271 14.4 8.0001 14.4V14.4ZM8.8001 5.59998C8.8001 5.3878 8.71581 5.18432 8.56578 5.03429C8.41575 4.88426 8.21227 4.79998 8.0001 4.79998C7.78793 4.79998 7.58444 4.88426 7.43441 5.03429C7.28438 5.18432 7.2001 5.3878 7.2001 5.59998V7.19998H5.6001C5.38792 7.19998 5.18444 7.28426 5.03441 7.43429C4.88438 7.58432 4.8001 7.7878 4.8001 7.99998C4.8001 8.21215 4.88438 8.41563 5.03441 8.56566C5.18444 8.71569 5.38792 8.79998 5.6001 8.79998H7.2001V10.4C7.2001 10.6121 7.28438 10.8156 7.43441 10.9657C7.58444 11.1157 7.78793 11.2 8.0001 11.2C8.21227 11.2 8.41575 11.1157 8.56578 10.9657C8.71581 10.8156 8.8001 10.6121 8.8001 10.4V8.79998H10.4001C10.6123 8.79998 10.8158 8.71569 10.9658 8.56566C11.1158 8.41563 11.2001 8.21215 11.2001 7.99998C11.2001 7.7878 11.1158 7.58432 10.9658 7.43429C10.8158 7.28426 10.6123 7.19998 10.4001 7.19998H8.8001V5.59998Z" fill="#070707"/>
</svg>
