<svg width="345" height="284" viewBox="0 0 345 284" fill="none" xmlns="http://www.w3.org/2000/svg">
<rect width="345" height="284" fill="#070707"/>
<g style="mix-blend-mode:exclusion">
<g style="mix-blend-mode:screen">
<ellipse cx="162.618" cy="56.8172" rx="20.7276" ry="32.6339" transform="rotate(90 162.618 56.8172)" fill="url(#paint0_linear_91_1769)"/>
</g>
<g style="mix-blend-mode:screen">
<ellipse cx="162.618" cy="75.4843" rx="31.0914" ry="48.9509" transform="rotate(90 162.618 75.4843)" fill="url(#paint1_linear_91_1769)"/>
</g>
<g style="mix-blend-mode:screen">
<ellipse cx="162.618" cy="93.5024" rx="41.8539" ry="65.8954" transform="rotate(90 162.618 93.5024)" fill="url(#paint2_linear_91_1769)"/>
</g>
<g style="mix-blend-mode:screen">
<ellipse cx="163.873" cy="112.318" rx="51.4205" ry="80.9572" transform="rotate(90 163.873 112.318)" fill="url(#paint3_linear_91_1769)"/>
</g>
<g style="mix-blend-mode:screen" filter="url(#filter0_f_91_1769)">
<ellipse cx="162.304" cy="126.07" rx="62.7808" ry="98.8431" transform="rotate(90 162.304 126.07)" fill="url(#paint4_linear_91_1769)"/>
</g>
<g style="mix-blend-mode:screen" filter="url(#filter1_f_91_1769)">
<ellipse cx="163.559" cy="138.825" rx="77.5293" ry="122.063" transform="rotate(90 163.559 138.825)" fill="url(#paint5_linear_91_1769)"/>
</g>
<g style="mix-blend-mode:screen" filter="url(#filter2_f_91_1769)">
<path d="M162.304 245.851C182.042 245.851 201.587 243.382 219.823 238.584C238.059 233.787 254.628 226.755 268.585 217.89C282.542 209.025 293.614 198.501 301.167 186.918C308.721 175.336 312.609 162.922 312.609 150.385L162.304 150.385L162.304 245.851Z" fill="url(#paint6_linear_91_1769)"/>
</g>
</g>
<defs>
<filter id="filter0_f_91_1769" x="56.2028" y="56.0306" width="212.203" height="140.078" filterUnits="userSpaceOnUse" color-interpolation-filters="sRGB">
<feFlood flood-opacity="0" result="BackgroundImageFix"/>
<feBlend mode="normal" in="SourceGraphic" in2="BackgroundImageFix" result="shape"/>
<feGaussianBlur stdDeviation="3.62921" result="effect1_foregroundBlur_91_1769"/>
</filter>
<filter id="filter1_f_91_1769" x="39.8377" y="59.6373" width="247.444" height="158.375" filterUnits="userSpaceOnUse" color-interpolation-filters="sRGB">
<feFlood flood-opacity="0" result="BackgroundImageFix"/>
<feBlend mode="normal" in="SourceGraphic" in2="BackgroundImageFix" result="shape"/>
<feGaussianBlur stdDeviation="0.82922" result="effect1_foregroundBlur_91_1769"/>
</filter>
<filter id="filter2_f_91_1769" x="146.256" y="134.336" width="182.402" height="127.564" filterUnits="userSpaceOnUse" color-interpolation-filters="sRGB">
<feFlood flood-opacity="0" result="BackgroundImageFix"/>
<feBlend mode="normal" in="SourceGraphic" in2="BackgroundImageFix" result="shape"/>
<feGaussianBlur stdDeviation="8.0243" result="effect1_foregroundBlur_91_1769"/>
</filter>
<linearGradient id="paint0_linear_91_1769" x1="182.631" y1="57.5674" x2="142.248" y2="57.6431" gradientUnits="userSpaceOnUse">
<stop stop-color="#6BFFF5"/>
<stop offset="1" stop-color="#00FF85"/>
<stop offset="1" stop-color="#2EFF32"/>
</linearGradient>
<linearGradient id="paint1_linear_91_1769" x1="192.637" y1="76.6096" x2="132.062" y2="76.7231" gradientUnits="userSpaceOnUse">
<stop stop-color="#6BFFF5"/>
<stop offset="1" stop-color="#00FF85"/>
<stop offset="1" stop-color="#2EFF32"/>
</linearGradient>
<linearGradient id="paint2_linear_91_1769" x1="203.029" y1="95.0173" x2="121.485" y2="95.17" gradientUnits="userSpaceOnUse">
<stop stop-color="#6BFFF5"/>
<stop offset="1" stop-color="#00FF85"/>
<stop offset="1" stop-color="#2EFF32"/>
</linearGradient>
<linearGradient id="paint3_linear_91_1769" x1="213.52" y1="114.179" x2="113.339" y2="114.366" gradientUnits="userSpaceOnUse">
<stop stop-color="#6BFFF5"/>
<stop offset="1" stop-color="#00FF85"/>
<stop offset="1" stop-color="#2EFF32"/>
</linearGradient>
<linearGradient id="paint4_linear_91_1769" x1="222.92" y1="128.342" x2="100.605" y2="128.571" gradientUnits="userSpaceOnUse">
<stop stop-color="#6BFFF5"/>
<stop offset="1" stop-color="#00FF85"/>
<stop offset="1" stop-color="#2EFF32"/>
</linearGradient>
<linearGradient id="paint5_linear_91_1769" x1="238.415" y1="141.631" x2="87.366" y2="141.914" gradientUnits="userSpaceOnUse">
<stop stop-color="#6BFFF5"/>
<stop offset="1" stop-color="#00FF85"/>
<stop offset="1" stop-color="#2EFF32"/>
</linearGradient>
<linearGradient id="paint6_linear_91_1769" x1="158.849" y1="242.56" x2="158.501" y2="56.5631" gradientUnits="userSpaceOnUse">
<stop stop-color="#6BFFF5"/>
<stop offset="1" stop-color="#00FF85"/>
<stop offset="1" stop-color="#2EFF32"/>
</linearGradient>
</defs>
</svg>
