<svg width="348" height="236" viewBox="0 0 348 236" fill="none" xmlns="http://www.w3.org/2000/svg">
<rect x="0.271484" width="347" height="235.145" rx="17.6359" fill="#F5F7FA"/>
<g clip-path="url(#clip0_184_1921)">
<path d="M247.558 37.9902H100.728C97.1966 37.9902 94.3438 40.8431 94.3438 44.3742V191.204C94.3438 194.736 97.1966 197.588 100.728 197.588H172.547C173.425 197.588 174.143 196.87 174.143 195.992V184.821C174.143 183.943 173.425 183.225 172.547 183.225H108.708V52.3541H239.578V116.193C239.578 117.071 240.296 117.789 241.174 117.789H252.346C253.224 117.789 253.942 117.071 253.942 116.193V44.3742C253.942 40.8431 251.089 37.9902 247.558 37.9902ZM202.332 135.225L212.746 124.812C212.957 124.6 213.104 124.333 213.171 124.041C213.237 123.75 213.221 123.445 213.123 123.163C213.026 122.88 212.85 122.63 212.618 122.442C212.385 122.254 212.105 122.135 211.808 122.098L176.018 117.909C175.001 117.789 174.123 118.647 174.243 119.685L178.432 155.474C178.592 156.791 180.208 157.35 181.145 156.412L191.599 145.958L242.71 197.07C243.329 197.688 244.346 197.688 244.965 197.07L253.423 188.611C254.042 187.993 254.042 186.975 253.423 186.357L202.332 135.225Z" fill="#3604FF"/>
</g>
<defs>
<clipPath id="clip0_184_1921">
<rect width="235.145" height="235.145" fill="white" transform="translate(56.1772)"/>
</clipPath>
</defs>
</svg>
