<svg width="348" height="236" viewBox="0 0 348 236" fill="none" xmlns="http://www.w3.org/2000/svg">
<rect x="0.271484" width="347" height="236" rx="17.6359" fill="#F5F7FA"/>
<path d="M229.855 134.03V69.9092C229.855 61.0925 222.642 53.8789 213.825 53.8789H101.613C92.7962 53.8789 85.5825 61.0925 85.5825 69.9092V134.03C85.5825 142.847 92.7962 150.061 101.613 150.061H213.825C222.642 150.061 229.855 142.847 229.855 134.03ZM157.719 126.015C144.414 126.015 133.673 115.275 133.673 101.97C133.673 88.6647 144.414 77.9244 157.719 77.9244C171.024 77.9244 181.764 88.6647 181.764 101.97C181.764 115.275 171.024 126.015 157.719 126.015ZM261.916 77.9244V166.091C261.916 174.908 254.702 182.121 245.886 182.121H109.628V166.091H245.886V77.9244H261.916Z" fill="#3604FF"/>
</svg>
