<svg width="268" height="236" viewBox="0 0 268 236" fill="none" xmlns="http://www.w3.org/2000/svg">
<rect x="0.271484" width="267" height="236" rx="17.6359" fill="#F5F7FA"/>
<path d="M106.072 69.9937H124.334V153.593C124.334 154.681 125.224 155.57 126.311 155.57H141.138C142.226 155.57 143.115 154.681 143.115 153.593V69.9937H161.427C163.082 69.9937 163.997 68.0909 162.983 66.8059L135.306 31.7646C135.121 31.5283 134.885 31.3372 134.615 31.2058C134.346 31.0744 134.05 31.0061 133.75 31.0061C133.449 31.0061 133.153 31.0744 132.884 31.2058C132.614 31.3372 132.378 31.5283 132.193 31.7646L104.516 66.7812C103.502 68.0909 104.417 69.9937 106.072 69.9937V69.9937ZM224.194 146.18H209.367C208.28 146.18 207.39 147.07 207.39 148.157V186.213H60.1086V148.157C60.1086 147.07 59.2189 146.18 58.1316 146.18H43.3046C42.2173 146.18 41.3276 147.07 41.3276 148.157V197.086C41.3276 201.46 44.8614 204.994 49.2354 204.994H218.264C222.638 204.994 226.171 201.46 226.171 197.086V148.157C226.171 147.07 225.282 146.18 224.194 146.18Z" fill="#C8F745"/>
</svg>
