<svg width="269" height="237" viewBox="0 0 269 237" fill="none" xmlns="http://www.w3.org/2000/svg">
<rect x="0.271484" width="268" height="237" rx="17.6359" fill="#F5F7FA"/>
<path d="M180.75 37.125C183.833 37.125 186.79 38.3498 188.97 40.5299C191.15 42.71 192.375 45.6669 192.375 48.75V188.25C192.375 191.333 191.15 194.29 188.97 196.47C186.79 198.65 183.833 199.875 180.75 199.875H87.7495C84.6664 199.875 81.7095 198.65 79.5294 196.47C77.3493 194.29 76.1245 191.333 76.1245 188.25V48.75C76.1245 45.6669 77.3493 42.71 79.5294 40.5299C81.7095 38.3498 84.6664 37.125 87.7495 37.125H180.75ZM87.7495 25.5C81.5832 25.5 75.6695 27.9495 71.3093 32.3098C66.9491 36.67 64.4995 42.5837 64.4995 48.75V188.25C64.4995 194.416 66.9491 200.33 71.3093 204.69C75.6695 209.05 81.5832 211.5 87.7495 211.5H180.75C186.916 211.5 192.83 209.05 197.19 204.69C201.55 200.33 204 194.416 204 188.25V48.75C204 42.5837 201.55 36.67 197.19 32.3098C192.83 27.9495 186.916 25.5 180.75 25.5H87.7495Z" fill="#C8F745"/>
<path d="M87.7495 54.5625C87.7495 53.0209 88.3619 51.5425 89.452 50.4524C90.542 49.3624 92.0204 48.75 93.562 48.75H174.937C176.479 48.75 177.957 49.3624 179.047 50.4524C180.137 51.5425 180.75 53.0209 180.75 54.5625V77.8125C180.75 79.3541 180.137 80.8325 179.047 81.9226C177.957 83.0126 176.479 83.625 174.937 83.625H93.562C92.0204 83.625 90.542 83.0126 89.452 81.9226C88.3619 80.8325 87.7495 79.3541 87.7495 77.8125V54.5625ZM87.7495 101.062C87.7495 99.5209 88.3619 98.0425 89.452 96.9524C90.542 95.8624 92.0204 95.25 93.562 95.25H105.187C106.729 95.25 108.207 95.8624 109.297 96.9524C110.387 98.0425 111 99.5209 111 101.062V112.688C111 114.229 110.387 115.708 109.297 116.798C108.207 117.888 106.729 118.5 105.187 118.5H93.562C92.0204 118.5 90.542 117.888 89.452 116.798C88.3619 115.708 87.7495 114.229 87.7495 112.688V101.062ZM87.7495 135.938C87.7495 134.396 88.3619 132.917 89.452 131.827C90.542 130.737 92.0204 130.125 93.562 130.125H105.187C106.729 130.125 108.207 130.737 109.297 131.827C110.387 132.917 111 134.396 111 135.938V147.562C111 149.104 110.387 150.583 109.297 151.673C108.207 152.763 106.729 153.375 105.187 153.375H93.562C92.0204 153.375 90.542 152.763 89.452 151.673C88.3619 150.583 87.7495 149.104 87.7495 147.562V135.938ZM87.7495 170.812C87.7495 169.271 88.3619 167.792 89.452 166.702C90.542 165.612 92.0204 165 93.562 165H105.187C106.729 165 108.207 165.612 109.297 166.702C110.387 167.792 111 169.271 111 170.812V182.438C111 183.979 110.387 185.458 109.297 186.548C108.207 187.638 106.729 188.25 105.187 188.25H93.562C92.0204 188.25 90.542 187.638 89.452 186.548C88.3619 185.458 87.7495 183.979 87.7495 182.438V170.812ZM122.625 101.062C122.625 99.5209 123.237 98.0425 124.327 96.9524C125.417 95.8624 126.895 95.25 128.437 95.25H140.062C141.604 95.25 143.082 95.8624 144.172 96.9524C145.262 98.0425 145.875 99.5209 145.875 101.062V112.688C145.875 114.229 145.262 115.708 144.172 116.798C143.082 117.888 141.604 118.5 140.062 118.5H128.437C126.895 118.5 125.417 117.888 124.327 116.798C123.237 115.708 122.625 114.229 122.625 112.688V101.062ZM122.625 135.938C122.625 134.396 123.237 132.917 124.327 131.827C125.417 130.737 126.895 130.125 128.437 130.125H140.062C141.604 130.125 143.082 130.737 144.172 131.827C145.262 132.917 145.875 134.396 145.875 135.938V147.562C145.875 149.104 145.262 150.583 144.172 151.673C143.082 152.763 141.604 153.375 140.062 153.375H128.437C126.895 153.375 125.417 152.763 124.327 151.673C123.237 150.583 122.625 149.104 122.625 147.562V135.938ZM122.625 170.812C122.625 169.271 123.237 167.792 124.327 166.702C125.417 165.612 126.895 165 128.437 165H140.062C141.604 165 143.082 165.612 144.172 166.702C145.262 167.792 145.875 169.271 145.875 170.812V182.438C145.875 183.979 145.262 185.458 144.172 186.548C143.082 187.638 141.604 188.25 140.062 188.25H128.437C126.895 188.25 125.417 187.638 124.327 186.548C123.237 185.458 122.625 183.979 122.625 182.438V170.812ZM157.5 101.062C157.5 99.5209 158.112 98.0425 159.202 96.9524C160.292 95.8624 161.77 95.25 163.312 95.25H174.937C176.479 95.25 177.957 95.8624 179.047 96.9524C180.137 98.0425 180.75 99.5209 180.75 101.062V112.688C180.75 114.229 180.137 115.708 179.047 116.798C177.957 117.888 176.479 118.5 174.937 118.5H163.312C161.77 118.5 160.292 117.888 159.202 116.798C158.112 115.708 157.5 114.229 157.5 112.688V101.062ZM157.5 135.938C157.5 134.396 158.112 132.917 159.202 131.827C160.292 130.737 161.77 130.125 163.312 130.125H174.937C176.479 130.125 177.957 130.737 179.047 131.827C180.137 132.917 180.75 134.396 180.75 135.938V182.438C180.75 183.979 180.137 185.458 179.047 186.548C177.957 187.638 176.479 188.25 174.937 188.25H163.312C161.77 188.25 160.292 187.638 159.202 186.548C158.112 185.458 157.5 183.979 157.5 182.438V135.938Z" fill="#C8F745"/>
</svg>
