<svg width="390" height="231" viewBox="0 0 390 231" fill="none" xmlns="http://www.w3.org/2000/svg">
<rect x="0.991211" width="389" height="231" rx="17.6359" fill="#F5F7FA"/>
<path d="M251.576 131.53V67.4092C251.576 58.5925 244.362 51.3789 235.545 51.3789H123.333C114.516 51.3789 107.303 58.5925 107.303 67.4092V131.53C107.303 140.347 114.516 147.561 123.333 147.561H235.545C244.362 147.561 251.576 140.347 251.576 131.53ZM179.439 123.515C166.134 123.515 155.394 112.775 155.394 99.4699C155.394 86.1647 166.134 75.4244 179.439 75.4244C192.744 75.4244 203.485 86.1647 203.485 99.4699C203.485 112.775 192.744 123.515 179.439 123.515ZM283.636 75.4244V163.591C283.636 172.408 276.423 179.621 267.606 179.621H131.348V163.591H267.606V75.4244H283.636Z" fill="#3604FF"/>
</svg>
