<svg width="367" height="236" viewBox="0 0 367 236" fill="none" xmlns="http://www.w3.org/2000/svg">
<rect x="0.464844" width="366.429" height="235.145" rx="17.6359" fill="#F5F7FA"/>
<path d="M234.193 53.1649L235.509 51.8491C236.499 50.8593 237.675 50.0743 238.969 49.5389C240.262 49.0035 241.649 48.7281 243.049 48.7285C244.449 48.7289 245.835 49.0051 247.129 49.5413C248.422 50.0775 249.597 50.8632 250.587 51.8535C251.577 52.8439 252.362 54.0194 252.897 55.3132C253.433 56.6069 253.708 57.9934 253.708 59.3935C253.707 60.7937 253.431 62.18 252.895 63.4734C252.359 64.7668 251.573 65.9419 250.583 66.9317L249.267 68.2386C251.518 70.7629 252.718 74.0526 252.621 77.4332C252.524 80.8139 251.138 84.0294 248.746 86.4207L157.862 177.314C157.294 177.879 156.582 178.279 155.804 178.47L120.482 187.301C119.743 187.485 118.969 187.475 118.235 187.271C117.501 187.067 116.832 186.677 116.293 186.139C115.755 185.6 115.364 184.931 115.161 184.197C114.957 183.463 114.947 182.689 115.131 181.95L123.961 146.627C124.155 145.852 124.554 145.144 125.118 144.579L210.262 59.4345C209.411 58.8352 208.375 58.5561 207.337 58.6466C206.3 58.7371 205.328 59.1913 204.593 59.9291L175.523 89.0081C175.112 89.4186 174.625 89.7442 174.089 89.9664C173.552 90.1886 172.978 90.3029 172.397 90.3029C171.816 90.3029 171.242 90.1886 170.705 89.9664C170.169 89.7442 169.681 89.4186 169.271 89.0081C168.86 88.5976 168.535 88.1102 168.313 87.5739C168.09 87.0375 167.976 86.4626 167.976 85.8821C167.976 85.3015 168.09 84.7266 168.313 84.1903C168.535 83.6539 168.86 83.1666 169.271 82.756L198.359 53.6859C200.752 51.2929 203.97 49.9066 207.352 49.8113C210.735 49.7161 214.026 50.9192 216.55 53.1737C218.976 51.0052 222.116 49.8058 225.37 49.8042C228.624 49.8026 231.765 50.9988 234.193 53.1649V53.1649ZM228.506 59.9291C227.678 59.1013 226.555 58.6363 225.385 58.6363C224.214 58.6363 223.091 59.1013 222.263 59.9291L132.218 149.957L125.471 176.952L152.466 170.205L242.512 80.1775C242.923 79.7674 243.249 79.2801 243.472 78.7437C243.694 78.2073 243.809 77.6323 243.809 77.0515C243.809 76.4707 243.694 75.8957 243.472 75.3593C243.249 74.8229 242.923 74.3356 242.512 73.9255L228.515 59.9291H228.506Z" fill="#3604FF"/>
</svg>
