<svg width="269" height="239" viewBox="0 0 269 239" fill="none" xmlns="http://www.w3.org/2000/svg">
<rect x="0.271484" width="268" height="239" rx="17.6359" fill="#F5F7FA"/>
<path d="M190.37 135.53V71.4091C190.37 62.5924 183.156 55.3788 174.34 55.3788H62.1275C53.3108 55.3788 46.0972 62.5924 46.0972 71.4091V135.53C46.0972 144.347 53.3108 151.561 62.1275 151.561H174.34C183.156 151.561 190.37 144.347 190.37 135.53ZM118.234 127.515C104.928 127.515 94.1881 116.775 94.1881 103.47C94.1881 90.1646 104.928 79.4243 118.234 79.4243C131.539 79.4243 142.279 90.1646 142.279 103.47C142.279 116.775 131.539 127.515 118.234 127.515ZM222.431 79.4243V167.591C222.431 176.408 215.217 183.621 206.4 183.621H70.1426V167.591H206.4V79.4243H222.431Z" fill="#C8F745"/>
</svg>
